<?xml version="1.0" standalone="no"?>
<!DOCTYPE svg PUBLIC "-//W3C//DTD SVG 20010904//EN"
 "http://www.w3.org/TR/2001/REC-SVG-20010904/DTD/svg10.dtd">
<svg version="1.0" xmlns="http://www.w3.org/2000/svg"
 width="500.000000pt" height="500.000000pt" viewBox="0 0 500.000000 500.000000"
 preserveAspectRatio="xMidYMid meet">

<g transform="translate(0.000000,500.000000) scale(0.100000,-0.100000)"
fill="#000000" stroke="none">
<path d="M0 2500 l0 -2500 2500 0 2500 0 0 2500 0 2500 -2500 0 -2500 0 0
-2500z m2523 1293 c-17 -13 -81 -29 -87 -22 -2 2 19 137 48 299 l51 295 3
-280 c2 -253 1 -281 -15 -292z m82 143 c5 -35 4 -38 -10 -26 -25 21 -28 5 -6
-31 25 -41 26 -50 4 -42 -12 5 -15 2 -11 -8 22 -54 22 -52 0 -40 -22 12 -22
16 -21 254 l1 242 19 -155 c9 -85 20 -173 24 -194z m-676 -266 c1 -18 -71 -99
-76 -85 -5 18 -123 576 -123 583 1 12 199 -482 199 -498z m31 123 c0 -2 -10
-3 -22 -3 -19 0 -16 -4 18 -35 31 -27 35 -34 20 -35 -18 0 -18 -2 4 -25 23
-24 23 -25 3 -25 -11 0 -25 6 -30 13 -8 10 -176 423 -190 467 -3 8 41 -68 96
-170 56 -101 101 -185 101 -187z m1308 68 l-63 -293 -37 44 c-21 24 -38 47
-38 53 0 13 193 496 197 492 1 -2 -25 -135 -59 -296z m1 217 c-86 -220 -153
-385 -162 -395 -5 -7 -19 -13 -30 -13 -20 0 -20 1 3 25 22 23 22 25 4 25 -15
1 -11 8 19 35 34 30 36 34 18 37 -19 3 -13 19 70 171 50 92 93 167 95 167 2 0
-6 -24 -17 -52z m-669 -374 c96 -18 234 -66 270 -94 l25 -20 -30 0 c-23 -1
-12 -8 49 -30 253 -94 452 -276 562 -515 47 -102 84 -248 91 -361 6 -100 2
-113 -56 -180 -30 -34 -39 -40 -54 -32 -14 7 -17 16 -12 35 12 50 6 258 -10
335 -64 309 -279 571 -570 696 -117 49 -229 72 -366 72 -182 0 -293 -26 -453
-108 l-89 -46 -39 22 -38 23 0 -44 0 -43 -64 -11 c-36 -6 -79 -18 -97 -27 -18
-9 -35 -16 -37 -16 -13 0 68 76 144 136 233 183 512 258 774 208z m-645 -64
c-3 -5 -11 -10 -16 -10 -6 0 -7 5 -4 10 3 6 11 10 16 10 6 0 7 -4 4 -10z
m1189 -25 c15 -19 24 -35 21 -35 -8 0 -115 61 -115 66 0 2 15 4 34 4 27 0 39
-7 60 -35z m-795 -39 c-2 -2 -68 -29 -146 -60 -126 -50 -217 -79 -203 -64 17
18 158 81 230 102 76 22 130 33 119 22z m-1097 -241 c145 -31 272 -59 282 -63
17 -7 15 -12 -19 -45 -21 -20 -41 -37 -45 -37 -8 0 -483 190 -489 196 -7 7 4
5 271 -51z m2767 51 c-2 -2 -113 -48 -246 -101 l-243 -98 -47 39 c-31 25 -42
40 -32 43 20 7 541 119 558 120 8 1 12 -1 10 -3z m-2799 -120 c225 -90 235
-95 238 -122 l3 -29 -16 23 c-18 25 -35 29 -35 7 0 -9 -14 0 -36 23 -29 31
-34 33 -29 14 l7 -23 -39 19 c-90 47 -338 182 -333 182 3 0 111 -42 240 -94z
m1936 43 l52 -52 -116 -112 c-65 -62 -132 -125 -151 -141 l-34 -28 7 52 c6 50
5 53 -19 62 -49 19 -33 48 87 162 62 59 115 107 118 108 2 0 28 -23 56 -51z
m719 -30 c-82 -44 -167 -90 -188 -101 l-39 -19 7 23 c5 19 0 17 -29 -14 -22
-23 -36 -32 -36 -23 0 21 -18 19 -32 -5 -18 -28 -28 -25 -19 6 6 23 32 36 236
119 127 51 235 94 240 94 6 1 -57 -35 -140 -80z m-1259 -95 c34 -34 82 -66
131 -89 43 -21 85 -40 93 -45 11 -5 14 -21 12 -61 -1 -30 -7 -143 -12 -252
l-9 -198 -41 -77 c-51 -93 -201 -342 -206 -342 -2 0 -4 130 -4 289 l0 288 41
7 c91 15 164 77 176 152 6 34 4 37 -13 29 -78 -33 -182 -65 -232 -71 -70 -7
-180 13 -280 53 -35 14 -66 23 -68 20 -3 -3 0 -24 6 -48 16 -59 67 -105 138
-125 31 -8 63 -17 70 -19 9 -3 12 -72 12 -297 0 -247 -2 -290 -14 -278 -26 28
-136 213 -189 319 l-55 106 -6 185 c-4 102 -9 214 -12 250 l-6 65 58 24 c123
50 204 120 267 230 l30 54 30 -59 c16 -32 53 -82 83 -110z m-199 93 c-27 -45
-109 -127 -127 -127 -17 0 -2 39 37 93 27 39 30 46 12 37 -47 -26 -99 -84
-120 -135 -20 -49 -39 -71 -39 -46 0 46 63 144 116 180 44 30 138 63 142 50 2
-5 -8 -29 -21 -52z m254 18 c48 -25 99 -76 122 -123 17 -33 30 -82 21 -82 -16
0 -127 66 -162 96 -39 33 -102 121 -102 142 0 14 59 -2 121 -33z m849 -131 c0
-28 -17 -22 -33 12 l-17 34 25 -16 c14 -9 25 -22 25 -30z m-2028 4 c-7 -7 -12
-8 -12 -2 0 14 12 26 19 19 2 -3 -1 -11 -7 -17z m59 -34 c-10 -52 -5 -104 10
-104 5 0 9 5 9 12 0 6 2 9 5 6 14 -13 -21 -113 -50 -144 -28 -29 -79 -53 -90
-42 -9 9 38 156 77 240 23 49 43 87 45 85 2 -2 -1 -26 -6 -53z m1593 -226 c-9
-29 -24 -68 -35 -86 -25 -43 -24 -45 11 -40 24 4 27 2 18 -9 -6 -8 -31 -25
-54 -39 -39 -23 -43 -28 -37 -55 7 -37 -17 -40 -44 -4 -18 25 -83 52 -83 34 0
-5 -7 -9 -16 -9 -14 0 -16 9 -10 67 4 37 8 69 11 71 3 3 227 111 252 121 1 1
-5 -23 -13 -51z m-1194 -201 c0 -31 -7 -38 -98 -100 -74 -50 -107 -67 -133
-67 -19 0 -47 -8 -64 -18 -16 -10 -44 -23 -61 -29 -31 -11 -32 -11 -38 25 -3
21 -6 61 -6 90 0 53 0 54 28 48 15 -3 51 -7 80 -8 28 -1 52 -4 52 -6 0 -2 -9
-17 -21 -33 -11 -16 -16 -29 -11 -29 16 0 173 91 220 127 24 18 45 33 48 33 2
0 4 -15 4 -33z m-423 -136 c6 -53 9 -98 6 -101 -5 -6 -52 49 -93 109 -23 34
-30 56 -30 93 l0 48 53 -26 53 -26 11 -97z m-303 77 l-6 -21 36 21 c44 26 50
27 42 7 -3 -8 0 -15 6 -15 8 0 9 -3 2 -10 -7 -7 -92 -9 -235 -8 l-224 3 175
21 c230 28 213 28 204 2z m2522 0 l36 -21 -7 21 c-7 25 -23 26 245 -8 l135
-17 -227 -2 c-142 -1 -229 3 -233 9 -3 6 -2 10 4 10 6 0 8 7 5 15 -8 20 -2 19
42 -7z m-2280 -195 c38 -45 43 -55 34 -73 -6 -11 -14 -20 -18 -20 -19 0 -65
62 -87 116 l-25 59 0 -45 c0 -25 7 -72 15 -104 16 -62 15 -72 -8 -63 -18 7
-27 74 -27 200 l0 101 35 -59 c20 -32 56 -83 81 -112z m2179 -71 c-4 -33 -12
-55 -21 -59 -24 -9 -26 2 -10 58 9 29 16 73 15 98 l0 46 -20 -45 c-27 -61 -69
-120 -85 -120 -7 0 -18 9 -24 20 -9 18 -5 28 33 71 25 28 60 77 79 109 l33 57
3 -91 c2 -50 0 -115 -3 -144z m-2345 173 c0 -36 -3 -45 -17 -45 -17 0 -459 75
-493 84 -8 2 103 4 248 5 l262 1 0 -45z m2915 40 c-21 -8 -496 -87 -499 -84
-2 2 -6 23 -10 47 l-6 42 262 -1 c145 0 259 -2 253 -4z m-2556 -234 c31 -107
73 -166 173 -241 46 -34 87 -69 92 -77 4 -9 5 -43 2 -77 -20 -176 -132 -237
-309 -167 -144 57 -286 67 -399 27 l-68 -24 0 21 c0 12 3 45 6 74 6 48 9 52
46 69 46 20 105 82 114 120 4 14 4 57 1 94 -6 78 7 100 59 100 81 0 159 50
171 111 3 18 14 31 32 38 52 19 56 15 80 -68z m1757 69 c21 -7 34 -23 47 -55
23 -55 66 -84 139 -92 79 -9 90 -22 82 -104 -4 -42 -2 -80 5 -102 14 -40 70
-96 118 -116 35 -14 43 -33 43 -108 l0 -51 -67 24 c-114 40 -255 30 -398 -27
-184 -73 -306 1 -305 185 l1 71 76 55 c116 84 159 144 189 264 17 69 22 73 70
56z m-2216 -190 c84 -42 95 -58 82 -118 l-7 -34 -61 41 c-33 22 -84 65 -113
96 -29 30 -54 55 -57 55 -11 0 53 -112 107 -187 63 -87 66 -93 46 -93 -49 0
-173 214 -196 336 l-8 41 65 -49 c35 -27 99 -66 142 -88z m2795 74 c-30 -118
-147 -313 -187 -314 -10 0 -18 3 -18 6 0 3 27 42 59 87 32 45 71 107 86 137
l27 55 -68 -66 c-62 -59 -153 -129 -168 -129 -3 0 -6 25 -6 55 l0 54 88 45
c48 25 112 65 142 89 30 25 56 43 57 42 2 -1 -4 -28 -12 -61z m-1880 -345 c33
-10 101 -24 150 -32 131 -21 161 -36 187 -94 17 -37 23 -73 26 -159 l4 -111
-53 -17 c-65 -22 -158 -68 -278 -139 l-91 -54 -58 12 c-104 22 -181 47 -195
64 -19 22 -71 215 -64 235 15 39 35 12 72 -95 42 -123 44 -125 153 -150 l48
-11 84 57 c71 49 184 108 310 163 l25 11 -25 0 c-67 2 -243 -67 -345 -134
l-55 -37 -57 20 -56 20 -32 88 c-18 49 -35 96 -39 106 -5 11 -2 18 13 23 11 3
40 28 64 55 47 52 77 127 77 191 l0 39 38 -16 c20 -9 64 -25 97 -35z m943
-125 c20 -39 70 -91 109 -112 16 -10 16 -13 -5 -59 -12 -26 -30 -72 -40 -102
-16 -52 -19 -55 -73 -74 l-57 -20 -69 46 c-38 25 -103 59 -144 76 -71 28 -209
64 -209 54 0 -2 26 -15 58 -29 104 -46 195 -96 280 -152 l84 -56 46 13 c104
27 112 35 150 149 33 99 55 130 72 102 4 -7 -3 -53 -17 -104 -14 -50 -28 -102
-31 -115 -6 -28 -42 -44 -171 -77 l-95 -24 -80 49 c-103 63 -249 136 -303 152
l-43 12 0 83 c0 147 25 215 92 250 16 8 81 24 144 35 62 10 146 31 186 47 l73
28 11 -66 c6 -36 21 -84 32 -106z m-1979 21 c-9 -8 -79 -35 -79 -30 0 7 74 44
79 39 2 -2 2 -6 0 -9z m2921 -30 c0 -3 -16 2 -36 10 -20 8 -38 15 -40 15 -2 0
-4 5 -4 10 0 6 18 1 40 -10 22 -11 40 -23 40 -25z m-2920 -9 c0 -8 -15 -16
-37 -20 -21 -4 -47 -9 -58 -11 -11 -3 3 6 30 19 59 29 65 30 65 12z m2905 -12
c28 -13 41 -22 30 -19 -11 2 -37 7 -57 11 -23 4 -38 12 -38 20 0 18 6 17 65
-12z m-2465 -34 c55 -13 150 -50 150 -59 0 -4 -35 -24 -77 -45 -115 -56 -204
-119 -266 -185 l-55 -60 -16 42 c-23 63 -44 164 -48 232 l-3 60 45 12 c56 14
210 16 270 3z m2225 -2 l58 -11 -7 -71 c-7 -75 -28 -165 -53 -227 l-15 -39
-37 45 c-52 62 -131 121 -249 185 -56 30 -102 58 -102 61 0 9 90 47 137 58 56
13 201 13 268 -1z m-1585 -612 c0 -139 8 -159 55 -138 24 11 25 14 25 121 0
78 -4 111 -12 114 -20 7 -7 14 40 21 l42 6 0 -160 c0 -100 4 -160 10 -160 6 0
10 -4 10 -10 0 -5 -20 -10 -45 -10 -44 0 -45 1 -45 31 l0 31 -46 -38 -47 -38
-28 32 c-29 32 -29 33 -29 162 0 80 -4 130 -10 130 -25 0 -6 19 23 23 17 2 38
5 45 5 9 2 12 -29 12 -122z m368 104 c36 -22 36 -21 -6 -72 -13 -16 -16 -15
-36 15 -26 38 -50 42 -54 9 -3 -18 12 -37 62 -84 36 -33 69 -71 72 -84 9 -34
-14 -82 -47 -99 -97 -51 -213 39 -150 116 l18 23 21 -47 c15 -35 30 -51 54
-62 71 -30 58 15 -33 113 -62 66 -71 94 -45 141 28 51 89 64 144 31z m152
-135 c0 -150 1 -155 20 -155 28 0 77 26 89 47 8 14 10 8 11 -29 l0 -48 -105 0
c-63 0 -105 4 -105 10 0 6 5 10 10 10 6 0 10 55 10 145 0 90 -4 145 -10 145
-25 0 -6 19 23 23 17 2 38 5 45 5 9 2 12 -35 12 -153z m-835 50 l33 -90 28 93
29 92 57 0 c32 0 58 -4 58 -10 0 -5 -4 -10 -10 -10 -6 0 -10 -55 -10 -145 0
-90 4 -145 10 -145 6 0 10 -4 10 -10 0 -6 -27 -10 -62 -10 -55 1 -61 2 -45 14
14 11 17 30 16 127 l-1 114 -41 -128 c-23 -70 -45 -126 -51 -124 -5 2 -30 58
-55 126 l-46 122 -3 -113 c-2 -71 1 -114 8 -116 27 -9 5 -22 -37 -22 -42 1
-46 2 -30 14 15 11 17 31 17 151 0 119 -2 140 -17 151 -16 12 -10 14 46 12
l63 -3 33 -90z m1085 85 c0 -5 -4 -10 -10 -10 -6 0 -10 -55 -10 -145 0 -90 4
-145 10 -145 6 0 10 -4 10 -10 0 -6 -27 -10 -62 -10 -48 0 -59 3 -50 12 17 17
17 289 0 306 -9 9 2 12 50 12 35 0 62 -4 62 -10z m160 -57 c45 -131 39 -129
71 -25 l30 92 61 0 c59 0 60 -1 45 -18 -14 -15 -17 -42 -17 -147 0 -105 3
-132 17 -147 15 -17 14 -18 -45 -18 -34 0 -62 4 -62 9 0 5 5 11 10 13 7 2 10
44 8 113 l-3 110 -36 -120 c-20 -65 -40 -120 -46 -122 -5 -2 -31 52 -56 119
l-46 123 0 -110 c-1 -74 3 -115 11 -123 9 -9 2 -12 -35 -12 -26 0 -47 5 -47
10 0 6 5 10 10 10 6 0 10 55 10 145 0 90 -4 145 -10 145 -5 0 -10 5 -10 10 0
6 26 10 58 10 l58 0 24 -67z m-1512 -380 c-4 -31 -23 -42 -30 -16 -7 25 1 43
18 43 11 0 14 -8 12 -27z m1785 15 c10 -32 -17 -65 -28 -35 -4 9 -186 11 -875
9 -695 -2 -870 0 -870 10 0 10 175 13 870 11 565 -2 870 1 870 7 0 14 28 12
33 -2z m-1439 -101 c16 -12 16 -14 2 -26 -14 -12 -19 -11 -34 3 -28 24 -41 20
-57 -19 -18 -41 -8 -73 31 -104 42 -33 57 -28 52 19 -2 27 1 41 10 45 21 8 22
7 22 -32 0 -46 -24 -73 -64 -73 -43 0 -73 24 -85 67 -23 83 61 165 123 120z
m546 -42 c0 -56 11 -70 30 -36 15 29 12 61 -7 68 -13 5 -12 8 8 15 42 16 65
-38 32 -74 -15 -17 -15 -21 7 -61 13 -23 28 -45 34 -49 6 -4 0 -8 -14 -8 -19
0 -30 10 -45 37 -29 54 -48 56 -43 4 3 -36 1 -41 -17 -41 -19 0 -20 5 -17 100
3 79 6 100 18 100 10 0 14 -14 14 -55z m224 42 c17 -12 17 -14 1 -27 -15 -12
-18 -12 -26 3 -6 9 -16 17 -24 17 -31 0 -25 -25 19 -69 50 -51 55 -65 29 -93
-19 -21 -62 -24 -88 -5 -14 11 -16 20 -10 43 7 27 8 28 15 8 8 -21 46 -54 62
-54 20 0 4 37 -32 76 -44 48 -49 68 -23 96 19 21 52 23 77 5z m256 3 c13 -8
13 -12 -3 -27 -17 -17 -19 -17 -28 0 -14 23 -35 21 -53 -5 -25 -36 -20 -73 16
-108 22 -23 38 -30 55 -27 26 5 32 -8 7 -17 -56 -22 -124 25 -124 86 0 74 77
132 130 98z m70 -80 c0 -97 8 -112 49 -90 17 9 21 8 21 -5 0 -11 -12 -15 -52
-15 l-53 0 3 100 c3 79 6 100 18 100 11 0 14 -19 14 -90z m132 8 c3 -74 5 -83
22 -81 18 1 17 0 -2 -20 -17 -17 -23 -18 -36 -7 -22 18 -23 190 -1 190 11 0
15 -18 17 -82z m90 -18 c3 -90 1 -100 -14 -100 -11 0 -18 8 -18 20 -1 11 -1
54 -1 95 0 41 0 77 1 80 0 3 6 5 14 5 12 0 15 -21 18 -100z m80 89 c3 -9 10
-8 28 1 20 11 25 10 37 -6 8 -11 12 -31 9 -46 -3 -15 -1 -30 4 -33 17 -11 11
-61 -10 -80 -12 -11 -41 -20 -72 -22 -34 -3 -48 -1 -40 5 9 6 13 34 12 93 -1
46 -1 87 -1 92 1 11 29 8 33 -4z m-1622 -8 c0 -6 -16 -7 -35 -4 l-35 6 0 -46
c0 -46 0 -46 30 -40 19 3 30 1 30 -6 0 -6 -14 -11 -31 -11 -30 0 -31 -1 -27
-40 3 -35 1 -40 -17 -40 -19 0 -20 5 -17 95 l3 95 50 0 c27 0 49 -4 49 -9z
m62 -86 c3 -89 2 -95 -17 -95 -19 0 -20 6 -17 95 3 72 7 95 17 95 10 0 14 -23
17 -95z m258 50 c0 -50 -1 -50 35 -33 23 10 26 17 23 45 -3 26 0 33 13 33 15
0 18 -13 21 -95 l3 -95 -30 1 c-16 0 -24 3 -17 6 12 4 17 74 7 85 -3 3 -17 3
-31 0 -24 -4 -26 -8 -22 -48 3 -43 2 -44 -27 -44 -20 0 -26 3 -17 9 10 6 13
31 10 95 -3 77 -1 86 15 86 14 0 17 -9 17 -45z m260 28 c0 -13 -3 -14 -12 -5
-7 7 -20 12 -31 12 -17 0 -18 -8 -15 -90 3 -84 2 -90 -17 -90 -19 0 -20 6 -17
90 4 94 0 100 -39 80 -15 -8 -19 -7 -19 5 0 12 14 15 75 15 64 0 75 -3 75 -17z
m130 8 c0 -6 -16 -7 -35 -4 l-35 6 0 -43 c0 -40 1 -42 25 -36 14 4 25 2 25 -4
0 -5 -11 -10 -25 -10 -22 0 -25 -4 -25 -40 0 -44 11 -50 48 -24 21 14 22 14
22 -5 0 -19 -6 -21 -62 -21 -38 0 -58 4 -50 9 10 6 13 31 10 95 l-3 86 53 0
c28 0 52 -4 52 -9z m365 -295 c19 -14 19 -15 1 -35 -19 -21 -19 -21 -33 -1
-19 27 -37 25 -51 -5 -19 -42 -14 -65 23 -102 25 -25 40 -33 55 -28 33 10 23
-12 -10 -24 -60 -20 -120 30 -120 101 0 32 7 47 34 74 37 37 70 43 101 20z
m-416 -48 c8 -27 17 -48 21 -48 3 0 12 23 19 50 l13 50 41 -1 c23 0 36 -3 30
-6 -17 -6 -18 -164 -1 -181 9 -9 4 -12 -22 -12 l-35 0 2 72 2 73 -25 -73 c-15
-41 -30 -70 -34 -65 -4 4 -18 37 -31 73 -26 70 -34 61 -27 -31 3 -43 1 -49
-17 -49 -19 0 -20 7 -20 100 l0 101 35 -3 c31 -3 35 -7 49 -50z m271 32 c0
-20 -14 -27 -24 -11 -3 5 -15 11 -26 14 -18 5 -20 0 -20 -40 0 -44 0 -45 30
-38 23 5 30 3 30 -9 0 -11 -9 -16 -31 -16 -30 0 -31 -1 -27 -40 3 -39 3 -40
-27 -40 l-30 0 0 100 0 100 63 0 c55 0 62 -2 62 -20z"/>
<path d="M3065 3284 c-9 -9 -15 -28 -13 -43 2 -20 9 -27 31 -29 53 -6 73 32
37 68 -24 24 -34 25 -55 4z m45 -34 c0 -21 -24 -28 -35 -10 -8 14 3 30 21 30
8 0 14 -9 14 -20z"/>
<path d="M2932 3158 c-19 -19 -14 -45 10 -62 19 -13 25 -14 43 -2 25 16 31 42
15 61 -15 18 -52 19 -68 3z m48 -28 c0 -21 -24 -28 -35 -10 -8 14 3 30 21 30
8 0 14 -9 14 -20z"/>
<path d="M2449 3223 c-42 -54 -158 -153 -180 -153 -10 0 -10 -109 0 -154 7
-33 40 -48 154 -71 52 -10 70 -10 73 -1 2 6 3 108 2 225 l-3 213 -46 -59z"/>
<path d="M2737 3034 c-4 -4 -7 -34 -7 -67 l0 -59 38 7 c20 4 38 8 38 8 7 9 13
96 7 100 -17 10 -69 17 -76 11z"/>
<path d="M2742 2727 l-42 -43 0 -149 c1 -168 2 -169 62 -51 26 52 30 72 35
172 4 69 2 114 -3 114 -6 0 -29 -19 -52 -43z"/>
<path d="M2273 2551 l6 -159 58 -94 58 -93 7 220 c4 121 5 226 3 233 -2 6 -15
12 -27 12 -13 0 -43 9 -67 20 l-44 20 6 -159z"/>
<path d="M2993 2847 c-46 -17 -83 -35 -83 -39 0 -4 16 -8 36 -8 28 0 35 -3 30
-15 -3 -8 -9 -22 -12 -30 -13 -31 16 -13 70 46 52 55 67 81 49 78 -5 -1 -45
-15 -90 -32z"/>
<path d="M1659 2129 c-37 -40 -109 -171 -124 -227 -6 -19 0 -25 37 -42 58 -26
66 -25 61 8 -3 24 -2 25 6 6 14 -32 60 -64 93 -64 99 0 160 87 107 154 -29 36
-35 33 -31 -18 3 -36 0 -46 -19 -60 -13 -9 -40 -16 -61 -16 -44 0 -69 29 -72
82 -1 29 4 35 37 52 54 26 102 15 149 -35 20 -21 40 -39 43 -39 8 0 6 73 -3
86 -4 6 -29 28 -57 49 -27 21 -67 53 -87 73 l-38 36 -41 -45z"/>
<path d="M3260 2135 c-19 -20 -58 -52 -87 -72 -52 -36 -53 -37 -53 -86 0 -39
3 -47 13 -39 10 9 12 4 9 -21 -7 -58 55 -107 135 -107 28 0 80 44 86 73 3 15
5 11 6 -12 1 -22 5 -32 14 -28 6 2 29 10 50 18 36 12 38 16 33 43 -15 72 -135
266 -165 266 -4 0 -23 -16 -41 -35z m75 -145 c20 -19 21 -25 11 -54 -18 -52
-34 -66 -77 -66 -57 0 -81 28 -77 88 3 39 7 47 28 54 38 11 90 1 115 -22z
m-155 -4 c0 -2 -8 -10 -17 -17 -16 -13 -17 -12 -4 4 13 16 21 21 21 13z"/>
<path d="M3320 691 c0 -43 9 -51 30 -27 16 20 9 60 -12 64 -15 3 -18 -4 -18
-37z"/>
<path d="M3333 643 c-15 -5 -18 -73 -4 -73 5 0 19 8 31 18 17 13 21 24 16 40
-7 22 -18 26 -43 15z"/>
</g>
</svg>
